<svg width="70" height="50" viewBox="0 0 70 50" fill="none" xmlns="http://www.w3.org/2000/svg">
<path fill-rule="evenodd" clip-rule="evenodd" d="M19.899 2.11564C22.0825 1.99015 24.2635 2.00019 26.4471 2.00019C26.4621 2.00019 37.5115 2.00019 37.5115 2.00019C39.7377 2.00019 41.9187 1.99015 44.101 2.11564C46.085 2.22858 48.0176 2.46952 49.9413 3.00788C53.9909 4.1398 57.5272 6.50403 60.0835 9.85588C62.6246 13.1864 64 17.2636 64 21.4499C64 25.6413 62.6246 29.716 60.0835 33.0465C57.5272 36.3971 53.9909 38.7625 49.9413 39.8945C48.0176 40.4328 46.085 40.6725 44.101 40.7867C41.9187 40.9122 39.7377 40.9009 37.5542 40.9009C37.5391 40.9009 26.4872 40.9022 26.4872 40.9022C24.2635 40.9009 22.0825 40.9122 19.899 40.7867C17.9162 40.6725 15.9837 40.4328 14.0599 39.8945C10.0104 38.7625 6.47404 36.3971 3.9178 33.0465C1.37663 29.716 0 25.6413 0 21.4512C0 17.2636 1.37663 13.1864 3.9178 9.85588C6.47404 6.50403 10.0104 4.1398 14.0599 3.00788C15.9837 2.46952 17.9162 2.22858 19.899 2.11564Z" fill="#2C2C2E" fill-opacity="0.6"/>
<g filter="url(#filter0_dd_17_2119)">
<path fill-rule="evenodd" clip-rule="evenodd" d="M44.9412 38.8824C54.2975 38.8824 61.8824 31.2975 61.8824 21.9412C61.8824 12.5848 54.2975 5 44.9412 5C35.5848 5 28 12.5848 28 21.9412C28 31.2975 35.5848 38.8824 44.9412 38.8824Z" fill="white"/>
</g>
<path d="M44.5664 14.7988C44.0977 14.7988 43.7168 14.418 43.7168 13.9492V11.8496C43.7168 11.3809 44.0977 11 44.5664 11C45.0254 11 45.4062 11.3809 45.4062 11.8496V13.9492C45.4062 14.418 45.0254 14.7988 44.5664 14.7988ZM49.3516 16.8008C49.0293 16.4785 49.0293 15.9414 49.3516 15.6094L50.8555 14.1055C51.1875 13.7832 51.7246 13.7832 52.0469 14.1055C52.3691 14.4375 52.3691 14.9844 52.0469 15.3066L50.5527 16.8008C50.2207 17.1328 49.6836 17.123 49.3516 16.8008ZM39.7617 16.8008C39.4297 17.123 38.8926 17.123 38.5703 16.8008L37.0762 15.2969C36.7637 14.9844 36.7637 14.4375 37.0859 14.1055C37.4082 13.7832 37.9551 13.793 38.2773 14.1055L39.7715 15.6094C40.084 15.9316 40.084 16.4883 39.7617 16.8008ZM44.5566 26.5762C41.8418 26.5762 39.5859 24.3203 39.5859 21.5957C39.5859 18.8613 41.8418 16.6055 44.5566 16.6055C47.2715 16.6055 49.5273 18.8613 49.5273 21.5957C49.5273 24.3203 47.2715 26.5762 44.5566 26.5762ZM44.5566 25.082C46.4609 25.082 48.043 23.5 48.043 21.5957C48.043 19.6816 46.4609 18.0996 44.5566 18.0996C42.6523 18.0996 41.0703 19.6816 41.0703 21.5957C41.0703 23.5 42.6523 25.082 44.5566 25.082ZM51.334 21.5957C51.334 21.1367 51.7246 20.7461 52.1836 20.7461H54.2832C54.7422 20.7461 55.123 21.1367 55.123 21.5957C55.123 22.0547 54.7422 22.4355 54.2832 22.4355H52.1836C51.7246 22.4355 51.334 22.0547 51.334 21.5957ZM37.7891 21.5957C37.7891 22.0547 37.3984 22.4355 36.9395 22.4355H34.8398C34.3809 22.4355 34 22.0547 34 21.5957C34 21.1367 34.3809 20.7461 34.8398 20.7461H36.9395C37.3984 20.7461 37.7891 21.1367 37.7891 21.5957ZM39.7715 26.3906C40.084 26.7227 40.084 27.2598 39.7617 27.582L38.2676 29.0859C37.9355 29.3984 37.3887 29.3887 37.0664 29.0762C36.7539 28.7441 36.7539 28.207 37.0762 27.8848L38.5703 26.3906C38.8926 26.0781 39.4395 26.0781 39.7715 26.3906ZM49.3516 26.3906C49.6836 26.0781 50.2207 26.0781 50.543 26.3906L52.0469 27.8945C52.3691 28.2168 52.3691 28.7539 52.0469 29.0859C51.7246 29.3984 51.1875 29.4082 50.8555 29.0957L49.3516 27.582C49.0293 27.2598 49.0293 26.7227 49.3516 26.3906ZM44.5664 28.3926C45.0254 28.3926 45.4062 28.7734 45.4062 29.2324V31.3418C45.4062 31.8008 45.0254 32.1816 44.5664 32.1816C44.0977 32.1816 43.7168 31.8008 43.7168 31.3418V29.2324C43.7168 28.7734 44.0977 28.3926 44.5664 28.3926Z" fill="#2C2C2E"/>
<defs>
<filter id="filter0_dd_17_2119" x="20" y="0" width="49.8823" height="49.8823" filterUnits="userSpaceOnUse" color-interpolation-filters="sRGB">
<feFlood flood-opacity="0" result="BackgroundImageFix"/>
<feColorMatrix in="SourceAlpha" type="matrix" values="0 0 0 0 0 0 0 0 0 0 0 0 0 0 0 0 0 0 127 0" result="hardAlpha"/>
<feOffset dy="3"/>
<feGaussianBlur stdDeviation="0.5"/>
<feColorMatrix type="matrix" values="0 0 0 0 0 0 0 0 0 0 0 0 0 0 0 0 0 0 0.06 0"/>
<feBlend mode="normal" in2="BackgroundImageFix" result="effect1_dropShadow_17_2119"/>
<feColorMatrix in="SourceAlpha" type="matrix" values="0 0 0 0 0 0 0 0 0 0 0 0 0 0 0 0 0 0 127 0" result="hardAlpha"/>
<feOffset dy="3"/>
<feGaussianBlur stdDeviation="4"/>
<feColorMatrix type="matrix" values="0 0 0 0 0 0 0 0 0 0 0 0 0 0 0 0 0 0 0.15 0"/>
<feBlend mode="normal" in2="effect1_dropShadow_17_2119" result="effect2_dropShadow_17_2119"/>
<feBlend mode="normal" in="SourceGraphic" in2="effect2_dropShadow_17_2119" result="shape"/>
</filter>
</defs>
</svg>
